<?xml version="1.0" encoding="UTF-8" standalone="no"?>
<!-- Created with Inkscape (http://www.inkscape.org/) -->

<svg
   width="210mm"
   height="297mm"
   viewBox="0 0 210 297"
   version="1.1"
   id="svg1"
   xml:space="preserve"
   sodipodi:docname="mood-mosaic-logo-new.svg"
   inkscape:version="1.3.2 (091e20e, 2023-11-25, custom)"
   xmlns:inkscape="http://www.inkscape.org/namespaces/inkscape"
   xmlns:sodipodi="http://sodipodi.sourceforge.net/DTD/sodipodi-0.dtd"
   xmlns="http://www.w3.org/2000/svg"
   xmlns:svg="http://www.w3.org/2000/svg"><sodipodi:namedview
     id="namedview1"
     pagecolor="#ffffff"
     bordercolor="#cccccc"
     borderopacity="1"
     inkscape:showpageshadow="0"
     inkscape:pageopacity="1"
     inkscape:pagecheckerboard="0"
     inkscape:deskcolor="#d1d1d1"
     inkscape:document-units="mm"
     inkscape:zoom="1.4878904"
     inkscape:cx="109.88713"
     inkscape:cy="617.98908"
     inkscape:window-width="2560"
     inkscape:window-height="1377"
     inkscape:window-x="1912"
     inkscape:window-y="-8"
     inkscape:window-maximized="1"
     inkscape:current-layer="layer1" /><defs
     id="defs1" /><g
     inkscape:label="Layer 1"
     inkscape:groupmode="layer"
     id="layer1"><path
       style="fill:#ff9249;fill-opacity:0.826087;stroke-width:0.450843"
       d=""
       id="path32"
       transform="scale(0.26458333)" /><path
       style="fill:#ff9249;fill-opacity:0.826087;stroke-width:0.450843"
       d=""
       id="path33"
       transform="scale(0.26458333)" /><g
       id="g3004"
       transform="matrix(0.54493869,0,0,0.54669002,-102.85894,-87.02589)"><path
         id="path3002"
         style="fill:#000000;stroke:#000000;stroke-width:0.67352px;stroke-linecap:round;stroke-linejoin:round"
         d="m 238.21,480.19 c 3.176,3.0034 6.9767,5.343 11.131,6.711 6.3487,2.0905 13.371,1.8718 19.657,-0.37671 l 9.171,-9.3719 0.0141,-0.0746 0.73604,-0.75215 c -0.14938,-0.0793 -0.30051,-0.15235 -0.44904,-0.23327 -0.057,-0.031 -0.10796,-0.0711 -0.16482,-0.10242 l 0.0135,-0.13411 c -0.0389,0.031 -0.0793,0.0596 -0.11807,0.0905 -9.598,-5.3129 -17.25,-14.052 -21.249,-24.268 -4.0358,-10.312 -4.3147,-22.066 -0.76949,-32.557 2.5569,-7.5663 6.9775,-14.362 11.801,-20.727 4.8239,-6.3653 10.1,-12.373 14.664,-18.927 4.5638,-6.5543 8.4394,-13.752 10.066,-21.571 1.6264,-7.8193 0.81355,-16.359 -3.4356,-23.122 -3.6233,-5.7664 -9.6737,-9.9478 -16.346,-11.313 -1.1924,-0.244 -2.4073,-0.38697 -3.6216,-0.45192 6.089,1.5353 11.571,5.4018 15.014,10.658 4.3904,6.7014 5.3495,15.253 3.8226,23.118 -1.5269,7.8646 -5.3599,15.128 -9.9153,21.718 -9.111,13.181 -21.435,24.486 -27.002,39.511 -4.1462,11.19 -4.0806,23.904 0.18625,35.049 2.6667,6.9654 6.9671,13.277 12.389,18.396 3.0306,2.8612 6.4032,5.3496 10.052,7.3627 -7.2132,3.8948 -16.035,4.8059 -23.834,2.2378 -9.496,-3.1268 -17.152,-11.305 -19.665,-20.981 -0.82249,-3.1669 -1.1202,-6.4422 -0.98332,-9.7084 -0.98129,5.1624 -1.0285,10.497 0.28773,15.565 1.4136,5.4431 4.4654,10.394 8.5488,14.255 z m -8.8366,-29.82 c 0.37152,-1.9544 0.88329,-3.8924 1.5002,-5.7762 2.2464,-6.8599 5.9053,-13.16 9.8982,-19.173 7.986,-12.027 17.624,-23.593 20.816,-37.673 0.56128,-2.4757 0.90188,-4.9926 1.0347,-7.5274 -0.10505,0.5649 -0.22676,1.1253 -0.35383,1.6857 -3.192,14.079 -12.815,25.631 -20.801,37.658 -3.993,6.0134 -7.6665,12.328 -9.913,19.188 -1.2282,3.7504 -2.016,7.6786 -2.1811,11.618 z m 33.249,-70.15 c 1.325,-7.1254 0.89662,-14.583 -1.2451,-21.508 -2.3115,-7.4738 -6.6227,-14.311 -12.358,-19.632 -1.0753,-0.99762 -2.2111,-1.9496 -3.3796,-2.8359 1.884,-3.4854 4.5662,-6.5493 7.8227,-8.8066 4.58,-3.1746 10.228,-4.7413 15.788,-4.4576 -0.40763,-0.10165 -0.82565,-0.18902 -1.2383,-0.26937 -6.6017,-1.2857 -13.703,0.20193 -19.231,4.0334 -2.6881,1.8633 -4.9752,4.2809 -6.7555,7.0238 -4.1643,-2.5612 -8.7487,-4.448 -13.515,-5.5391 -7.6258,-1.7458 -15.701,-1.4493 -23.18,0.84649 l -0.69561,5.8568 c 7.4786,-2.2958 15.568,-2.6073 23.194,-0.86153 4.0968,0.93785 8.0419,2.4799 11.718,4.5167 -0.58613,1.5341 -1.0162,3.1262 -1.2881,4.7469 -1.1128,6.633 0.56353,13.68 4.5382,19.106 l 4.9684,1.122 c -4.1282,-5.4165 -5.9304,-12.554 -4.8675,-19.281 0.1695,-1.0727 0.43039,-2.1232 0.73968,-3.1634 1.6466,1.157 3.2242,2.435 4.6998,3.8039 5.735,5.3207 10.032,12.173 12.343,19.647 1.5615,5.0486 2.2173,10.375 1.9407,15.651 z" /><path
         id="path3699"
         style="fill:#000000;stroke:#000000;stroke-width:0.67352px;stroke-linecap:round;stroke-linejoin:round"
         d="m 527.48,424.69 c -3.176,-3.0034 -6.9767,-5.343 -11.131,-6.711 -6.3487,-2.0905 -13.371,-1.8718 -19.657,0.37671 l -9.171,9.3719 -0.0141,0.0746 -0.73604,0.75215 c 0.14938,0.0793 0.30051,0.15235 0.44904,0.23327 0.057,0.031 0.10796,0.0711 0.16482,0.10242 l -0.0135,0.13411 c 0.0389,-0.031 0.0793,-0.0596 0.11807,-0.0905 9.598,5.3129 17.25,14.052 21.249,24.268 4.0358,10.312 4.3147,22.066 0.76949,32.557 -2.5569,7.5663 -6.9775,14.362 -11.801,20.727 -4.8239,6.3653 -10.1,12.373 -14.664,18.927 -4.5638,6.5543 -8.4394,13.752 -10.066,21.571 -1.6264,7.8193 -0.81355,16.359 3.4356,23.122 3.6233,5.7664 9.6737,9.9478 16.346,11.313 1.1924,0.244 2.4073,0.38697 3.6216,0.45192 -6.089,-1.5353 -11.571,-5.4018 -15.014,-10.658 -4.3904,-6.7014 -5.3495,-15.253 -3.8226,-23.118 1.5269,-7.8646 5.3599,-15.128 9.9153,-21.718 9.111,-13.181 21.435,-24.486 27.002,-39.511 4.1462,-11.19 4.0806,-23.904 -0.18625,-35.049 -2.6667,-6.9654 -6.9671,-13.277 -12.389,-18.396 -3.0306,-2.8612 -6.4032,-5.3496 -10.052,-7.3627 7.2132,-3.8948 16.035,-4.8059 23.834,-2.2378 9.496,3.1268 17.152,11.305 19.665,20.981 0.82249,3.1669 1.1202,6.4422 0.98332,9.7084 0.98129,-5.1624 1.0285,-10.497 -0.28773,-15.565 -1.4136,-5.4431 -4.4654,-10.394 -8.5488,-14.255 z m 8.8366,29.82 c -0.37152,1.9544 -0.88329,3.8924 -1.5002,5.7762 -2.2464,6.8599 -5.9053,13.16 -9.8982,19.173 -7.986,12.027 -17.624,23.593 -20.816,37.673 -0.56128,2.4757 -0.90188,4.9926 -1.0347,7.5274 0.10505,-0.5649 0.22676,-1.1253 0.35383,-1.6857 3.192,-14.079 12.815,-25.631 20.801,-37.658 3.993,-6.0134 7.6665,-12.328 9.913,-19.188 1.2282,-3.7504 2.016,-7.6786 2.1811,-11.618 z m -33.249,70.15 c -1.325,7.1254 -0.89662,14.583 1.2451,21.508 2.3115,7.4738 6.6227,14.311 12.358,19.632 1.0753,0.99762 2.2111,1.9496 3.3796,2.8359 -1.884,3.4854 -4.5662,6.5493 -7.8227,8.8066 -4.58,3.1746 -10.228,4.7413 -15.788,4.4576 0.40763,0.10165 0.82565,0.18902 1.2383,0.26937 6.6017,1.2857 13.703,-0.20193 19.231,-4.0334 2.6881,-1.8633 4.9752,-4.2809 6.7555,-7.0238 4.1643,2.5612 8.7487,4.448 13.515,5.5391 7.6258,1.7458 15.701,1.4493 23.18,-0.84649 l 0.69561,-5.8568 c -7.4786,2.2958 -15.568,2.6073 -23.194,0.86153 -4.0968,-0.93785 -8.0419,-2.4799 -11.718,-4.5167 0.58613,-1.5341 1.0162,-3.1262 1.2881,-4.7469 1.1128,-6.633 -0.56353,-13.68 -4.5382,-19.106 l -4.9684,-1.122 c 4.1282,5.4165 5.9304,12.554 4.8675,19.281 -0.1695,1.0727 -0.43039,2.1232 -0.73968,3.1634 -1.6466,-1.157 -3.2242,-2.435 -4.6998,-3.8039 -5.735,-5.3207 -10.032,-12.173 -12.343,-19.647 -1.5615,-5.0486 -2.2173,-10.375 -1.9407,-15.651 z" /><path
         id="path4361"
         style="fill:#ffffff;stroke:#000000;stroke-width:1.347;stroke-linecap:round;stroke-linejoin:round"
         d="m 348.96,390.35 c -40.778,-6.5802 -70.431,15.788 -76.837,55.485 -6.2552,38.764 1.5134,74.967 11.518,96.896 10.029,21.983 28.19,38.491 34.358,39.486 6.1684,0.99537 28.6,-8.9617 45.034,-26.675 15.984,-17.227 34.988,-48.551 41.411,-88.355 6.4056,-39.696 -15.788,-70.431 -55.485,-76.837 z" /><path
         id="path4363"
         style="fill:#000000;stroke-width:0"
         d="m 348.96,390.36 c 40.778,6.5802 61.889,37.138 55.483,76.835 -6.2552,38.764 -25.022,70.67 -41.416,88.339 -16.435,17.713 -38.857,27.671 -45.025,26.675 l 30.958,-191.85 z" /><path
         id="path4373"
         style="fill:#ffffff;stroke:#ffffff;stroke-width:1.347;stroke-linecap:round;stroke-linejoin:round"
         d="m 342.76,484.8 c 1.2081,-2.3947 5.1269,-3.535 13.203,-2.3516 8.3922,1.2297 25.155,9.6865 23.947,12.081 -0.80765,1.6009 -21.112,0.16407 -28.779,-2.5024 -7.6732,-2.6685 -9.4813,-5.0257 -8.3707,-7.2272 z" /><path
         id="path4375"
         style="fill:#000000;stroke:#000000;stroke-width:1.347;stroke-linecap:round;stroke-linejoin:round"
         d="m 324.9,482.22 c -0.35872,-2.6581 -3.6893,-5.017 -11.708,-6.5394 -8.333,-1.582 -26.94,0.92905 -26.581,3.5871 0.23981,1.777 19.898,7.0581 28.016,7.0452 8.1239,-0.0129 10.603,-1.6494 10.274,-4.0929 z" /><path
         id="path4379"
         style="fill:#ffffff;stroke:#ffffff;stroke-width:1.347;stroke-linecap:round;stroke-linejoin:round"
         d="m 342.07,477.01 c 0,0 14.581,-5.97 20.236,-5.0575 5.4078,0.87264 23.899,6.6308 23.899,6.6308 0,0 -18.055,-8.4621 -23.463,-9.3347 -5.4167,-0.87406 -20.673,7.7614 -20.673,7.7614 z" /><path
         id="path4381"
         style="fill:#000000;stroke:#000000;stroke-width:1.347;stroke-linecap:round;stroke-linejoin:round"
         d="m 328.24,474.77 c 0,0 -11.964,-10.253 -17.618,-11.166 -5.4078,-0.87265 -24.772,-1.223 -24.772,-1.223 0,0 19.8,-2.3536 25.208,-1.481 5.4167,0.87406 17.182,13.87 17.182,13.87 z" /><path
         id="path4385"
         style="fill:#ffffff;stroke:#ffffff;stroke-width:1.347;stroke-linecap:round;stroke-linejoin:round"
         d="m 335.77,476.15 c 1.7152,10.51 -0.20539,18.667 -0.76078,26.056 -0.55539,7.3896 -0.66445,9.7999 1.3264,13.941 1.9909,4.1407 4.4306,15.682 1.031,13.729 -3.3996,-1.9532 -6.7275,-0.93092 -9.9737,-1.6094 3.449,-21.566 6.2312,-38.818 8.3771,-52.116 z" /><path
         id="path4387"
         style="fill:#000000;stroke:#000000;stroke-width:1.347;stroke-linecap:round;stroke-linejoin:round"
         d="m 334.43,475.92 c -4.934,9.4373 -5.6221,17.823 -7.4192,25.012 -1.7971,7.1892 -2.4518,9.5115 -5.644,12.816 -3.1922,3.3043 -9.1384,13.493 -5.2969,12.708 3.8414,-0.78473 6.6788,1.2324 9.9737,1.6094 3.5096,-21.557 6.2406,-38.847 8.3865,-52.145 z" /><path
         id="path4367"
         style="fill:#ffffff;stroke:#ffffff;stroke-width:1.347;stroke-linecap:round;stroke-linejoin:round"
         d="m 346.71,556.68 c 0,0 -9.6682,-18.667 -20.59,-20.378 l -1.6094,9.9736 c 10.035,1.6193 22.199,10.404 22.199,10.404 z" /><path
         id="path4416"
         style="fill:#000000;stroke:#000000;stroke-width:1.347;stroke-linecap:round;stroke-linejoin:round"
         d="m 298.84,548.95 c 0,0 15.049,-14.679 25.954,-12.868 l -1.6094,9.9736 c -10.035,-1.6193 -24.345,2.8939 -24.345,2.8939 z" /><path
         id="path2849"
         style="fill:#ffffff;stroke:#000000;stroke-width:1.347;stroke-linecap:round;stroke-linejoin:round"
         d="m 423.2,322.96 c -41.137,3.7248 -64.326,32.741 -60.7,72.787 3.5409,39.106 20.034,72.256 35.158,91.024 15.162,18.814 36.845,30.309 43.068,29.746 6.2227,-0.56345 25.489,-15.766 37.024,-36.998 11.219,-20.649 21.872,-55.704 18.237,-95.858 -3.626,-40.046 -32.741,-64.326 -72.787,-60.7 z" /><path
         id="path3366"
         style="fill:#000000;stroke-width:0"
         d="m 423.2,322.97 c 41.137,-3.7248 69.159,20.652 72.785,60.699 3.5409,39.106 -6.7386,74.665 -18.246,95.844 -11.536,21.232 -30.792,36.433 -37.015,36.996 l -17.52,-193.54 z" /><path
         id="path3694"
         style="fill:#000000;stroke:#000000;stroke-width:1.347;stroke-linecap:round;stroke-linejoin:round"
         d="m 405.42,470.33 c 0,0 21.002,18.438 32.007,17.39 l -1.2147,-13.415 c -10.124,0.91665 -30.792,-3.9746 -30.792,-3.9746 z" /><path
         id="path3700"
         style="fill:#ffffff;stroke:#ffffff;stroke-width:1.347;stroke-linecap:round;stroke-linejoin:round"
         d="m 467.16,464.74 c 0,0 -17.349,21.91 -28.363,22.856 l -1.2147,-13.415 c 10.124,-0.91665 29.577,-9.4409 29.577,-9.4409 z" /><path
         id="path3641"
         style="fill:#ffffff;stroke:#ffffff;stroke-width:1.347;stroke-linecap:round;stroke-linejoin:round"
         d="m 441.5,421.8 c -0.24188,-2.6713 2.4801,-5.7123 9.9594,-8.9812 7.7719,-3.3969 26.471,-5.09 26.713,-2.4188 0.1617,1.7858 -17.828,11.31 -25.745,13.104 -7.923,1.7955 -10.705,0.75193 -10.927,-1.7038 z" /><path
         id="path4150"
         style="fill:#000000;stroke:#000000;stroke-width:1.347;stroke-linecap:round;stroke-linejoin:round"
         d="m 422.96,423.48 c -0.24188,-2.6713 -3.4658,-5.1739 -11.411,-7.0463 -8.2556,-1.9456 -26.954,-0.25252 -26.713,2.4187 0.1617,1.7858 19.57,7.9234 27.68,8.2663 8.1167,0.34314 10.666,-1.1831 10.443,-3.6387 z" /><path
         id="path3660"
         style="fill:#ffffff;stroke:#ffffff;stroke-width:1.347;stroke-linecap:round;stroke-linejoin:round"
         d="m 438,408.62 c 0,0 12.648,-9.3956 18.353,-9.9121 5.4555,-0.49398 24.797,0.50484 24.797,0.50484 0,0 -19.588,-3.7266 -25.044,-3.2326 -5.4644,0.49477 -18.106,12.64 -18.106,12.64 z" /><path
         id="path4156"
         style="fill:#000000;stroke:#000000;stroke-width:1.347;stroke-linecap:round;stroke-linejoin:round"
         d="m 424.03,409.88 c 0,0 -14.13,-6.9708 -19.835,-6.4543 -5.4555,0.49398 -24.303,4.9506 -24.303,4.9506 0,0 18.6,-7.1844 24.056,-7.6784 5.4644,-0.49478 20.082,9.182 20.082,9.182 z" /><path
         id="path4176"
         style="fill:#ffffff;stroke:#ffffff;stroke-width:1.347;stroke-linecap:round;stroke-linejoin:round"
         d="m 431.67,409.36 c 4.2649,9.7579 4.4244,18.136 5.7166,25.433 1.2922,7.2969 1.7835,9.6591 4.738,13.178 2.9544,3.5186 8.1767,14.096 4.3992,13.046 -3.7775,-1.0503 -6.7484,0.76436 -10.062,0.91103 -2.0001,-21.749 -3.5775,-39.152 -4.7922,-52.567 z" /><path
         id="path4190"
         style="fill:#000000;stroke:#000000;stroke-width:1.347;stroke-linecap:round;stroke-linejoin:round"
         d="m 430.32,409.46 c -2.4428,10.365 -1.0325,18.66 -0.99303,26.07 0.0395,7.4104 -0.0195,9.8224 -2.2939,13.814 -2.2744,3.992 -5.5118,15.336 -1.9844,13.624 3.5274,-1.7117 6.776,-0.46022 10.062,-0.91105 -1.9389,-21.754 -3.5755,-39.182 -4.7903,-52.598 z" /></g><path
       style="fill:#ff9307;fill-opacity:0.826087;stroke-width:0.450843"
       d="m 262.08211,870.70566 c -10.96804,-5.29498 -27.94323,-21.53977 -41.78183,-39.98406 -18.67222,-24.88661 -31.08831,-52.0693 -40.20035,-88.01108 -11.73207,-46.27627 -14.43467,-96.01194 -7.78106,-143.19376 3.17886,-22.54181 8.18021,-39.19916 16.78503,-55.90375 9.80905,-19.04239 22.80976,-33.99393 39.48711,-45.41239 21.53733,-14.74594 48.54959,-22.0999 77.70194,-21.15399 8.39217,0.27231 21.48987,1.56411 22.55917,2.22497 0.79729,0.49275 -27.1445,173.76303 -27.99085,173.57458 -1.60263,-0.35685 -2.41197,0.64607 -4.74281,5.87719 -4.64151,10.41702 -6.84035,18.14957 -11.67848,41.06928 -3.71639,17.60568 -6.48859,24.80992 -11.89068,30.90078 -3.58024,4.03673 -9.07816,12.01083 -11.2568,16.3267 -3.36998,6.67588 -4.0582,10.76483 -2.11855,12.58704 1.02914,0.96682 1.41852,1.02522 4.89992,0.73488 3.4429,-0.28712 4.35069,-0.15733 10.12643,1.44786 3.48948,0.96979 7.05172,1.79913 7.91609,1.84297 1.79094,0.0908 1.76712,-0.83061 0.22184,8.58176 l -0.77165,4.70013 -5.69598,0.10976 c -4.55493,0.0878 -6.55281,0.36321 -9.97316,1.37498 -10.78461,3.1902 -25.97375,12.62437 -37.90048,23.54049 -4.30235,3.93779 -3.50229,5.59161 1.99319,4.12013 16.42419,-4.39779 32.22716,-6.4721 42.14672,-5.53222 2.79241,0.26458 5.17098,0.57494 5.28572,0.68968 0.19618,0.19618 -10.60433,68.46877 -11.11427,70.25594 -0.31377,1.09964 -0.38447,1.08679 -4.22621,-0.76787 z m 11.17514,-194.42399 c 7.07166,-1.76118 9.71766,-5.01997 8.35171,-10.28587 -2.15597,-8.31149 -19.14679,-14.68816 -39.09841,-14.67369 -18.28719,0.0133 -39.85977,4.15302 -41.94493,8.04918 -0.91261,1.70522 -0.4067,3.45519 1.33754,4.62672 5.24903,3.52549 28.71749,9.95891 45.6975,12.52707 7.35375,1.11223 20.72261,0.9854 25.65659,-0.24341 z m 15.19522,-23.27747 c 0.31499,-0.37953 0.44542,-1.09108 0.28985,-1.58123 -0.30853,-0.97212 -13.83371,-14.4339 -18.80533,-18.71718 -4.62919,-3.98827 -10.3144,-7.95351 -13.78199,-9.61245 l -3.08907,-1.47787 -10.93054,0.0699 c -10.45824,0.0669 -18.28632,0.59801 -35.32258,2.39673 -6.65548,0.70271 -7.82765,0.94822 -8.24431,1.72675 -1.05613,1.97339 -0.0858,2.13122 16.47814,2.68 17.07016,0.56556 28.41258,1.2108 33.97974,1.93301 6.70814,0.87024 17.89092,7.41247 32.03372,18.74059 3.11181,2.4925 5.91925,4.53182 6.23876,4.53182 0.3195,0 0.83863,-0.31052 1.15361,-0.69005 z"
       id="path99"
       transform="scale(0.26458333)" /><path
       style="fill:#ff9307;fill-opacity:0.826087;stroke-width:0.450843"
       d="m 306.46436,767.22084 c -2.58032,-1.65517 -6.21542,-2.4206 -13.45944,-2.83413 -4.96959,-0.28369 -7.77472,-0.63844 -8.13494,-1.0288 -0.41964,-0.45475 1.50857,-13.40826 8.14466,-54.71501 4.78196,-29.76557 8.9148,-54.33954 9.18409,-54.60883 0.8985,-0.89851 1.81462,0.52616 2.15264,3.34761 1.44893,12.09416 1.23093,21.90824 -0.9104,40.98525 -1.51979,13.5397 -2.02978,26.32167 -1.21608,30.47832 0.32583,1.66439 1.55108,5.35591 2.72279,8.20335 3.65069,8.87179 6.38573,21.51747 5.65036,26.12495 -0.52438,3.2855 -2.4231,5.14454 -4.13368,4.04729 z"
       id="path100"
       transform="scale(0.26458333)" /><path
       style="fill:#ff9307;fill-opacity:0.826087;stroke-width:0.450843"
       d="m 322.13286,820.48628 c -12.01083,-8.33756 -27.41959,-15.81988 -38.16002,-18.53007 -2.86628,-0.72327 -5.27809,-1.51506 -5.35959,-1.75955 -0.19208,-0.57625 3.11796,-20.98903 3.50505,-21.61535 0.43678,-0.70673 3.70295,-0.05 7.3296,1.47376 10.9145,4.58578 23.56906,18.0487 34.61554,36.82674 3.45106,5.8665 2.87565,6.94081 -1.93058,3.60447 z"
       id="path101"
       transform="scale(0.26458333)" /><path
       style="fill:#ff9307;fill-opacity:0.826087;stroke-width:0.450843"
       d="m 320.99674,819.37068 c -11.92024,-7.98066 -26.39398,-14.85266 -37.67311,-17.88684 -2.17781,-0.58586 -4.07315,-1.36094 -4.21186,-1.72242 -0.22581,-0.58844 2.38255,-18.10921 3.02281,-20.30476 0.73684,-2.5267 10.63679,1.7432 17.74261,7.65249 7.36815,6.12744 16.43086,17.28531 22.87807,28.16711 4.49306,7.58351 4.26076,8.12436 -1.75852,4.09442 z"
       id="path102"
       transform="scale(0.26458333)" /><path
       style="fill:#ff9307;fill-opacity:0.826087;stroke-width:0.450843"
       d="m 318.17398,817.40157 c -10.39158,-6.6515 -22.72227,-12.42286 -33.92317,-15.87768 l -4.93345,-1.52168 0.32148,-3.17472 c 0.31172,-3.07831 1.91016,-13.71434 2.45907,-16.36265 0.43526,-2.1 2.93798,-1.79599 8.58786,1.04318 7.8572,3.94839 15.38568,10.82872 23.48798,21.46584 4.55037,5.97396 11.36646,16.90416 11.36646,18.22711 0,0.70127 -1.72448,-0.18819 -7.36623,-3.7994 z"
       id="path103"
       transform="scale(0.26458333)" /><path
       style="fill:#ff9307;fill-opacity:0.826087;stroke-width:0.450843"
       d="m 320.525,818.7797 c -13.12688,-8.25739 -24.3146,-13.58731 -36.21196,-17.25166 -4.47138,-1.37717 -4.87122,-1.5974 -4.87122,-2.68308 0,-2.08794 2.37499,-17.50801 2.87678,-18.678 0.4245,-0.98978 0.71736,-1.09831 2.36686,-0.87706 4.70286,0.63078 12.95089,5.81859 19.3987,12.20131 6.86155,6.79228 15.10003,17.72585 19.74233,26.20072 2.58738,4.72346 2.51574,4.74707 -3.30149,1.08777 z"
       id="path104"
       transform="scale(0.26458333)" /><path
       style="fill:#ff9307;fill-opacity:0.826087;stroke-width:0.450843"
       d="m 306.26918,766.84816 c -1.03771,-0.98545 -5.31001,-1.96365 -10.5461,-2.41466 -10.78896,-0.92933 -10.57837,-0.88594 -10.57837,-2.17938 0,-3.84635 16.58702,-107.24613 17.32193,-107.98104 0.61766,-0.61766 1.29267,0.8829 1.79297,3.9858 0.29058,1.80227 0.52059,8.40946 0.51112,14.68264 -0.0138,9.1241 -0.27444,13.73501 -1.30302,23.0492 -0.75528,6.83925 -1.39187,15.76126 -1.54286,21.62347 -0.29056,11.28119 -0.4409,10.38962 3.84675,22.81158 4.3559,12.61971 5.68386,21.91443 3.61562,25.30659 -0.92075,1.51014 -2.21504,1.97331 -3.11804,1.1158 z"
       id="path105"
       transform="scale(0.26458333)" /><path
       style="fill:#ff9307;fill-opacity:0.826087;stroke-width:0.450843"
       d="m 305.58008,766.34835 c -2.12736,-1.06684 -5.86392,-1.74725 -13.30675,-2.4231 -3.26728,-0.29668 -6.17844,-0.7867 -6.46925,-1.08891 -0.60356,-0.62724 0.12233,-6.14556 4.35451,-33.1035 6.63758,-42.27975 12.00267,-74.17837 12.57884,-74.78865 0.8605,-0.91143 1.47146,3.76289 1.73119,13.24492 0.27439,10.01722 -0.0388,16.2821 -1.55634,31.1283 -0.48675,4.76204 -0.82017,12.32066 -0.84901,19.24727 l -0.0475,11.40578 2.97515,8.93777 c 3.63264,10.91294 4.92996,16.49425 4.9923,21.47767 0.0707,5.65477 -1.30415,7.51654 -4.40314,5.96245 z"
       id="path106"
       transform="scale(0.26458333)" /><path
       style="fill:#ff9307;fill-opacity:0.826087;stroke-width:0.450843"
       d="m 305.10484,766.14897 c -1.54232,-0.82674 -5.56215,-1.54327 -12.35627,-2.20249 -7.16847,-0.69554 -7.12862,-0.68098 -7.12862,-2.60351 0,-4.13497 15.6165,-102.01831 16.94703,-106.22299 0.5168,-1.63317 1.18685,1.18302 1.66988,7.01843 0.63489,7.66992 0.20815,21.79092 -1.03022,34.08993 -0.52637,5.22765 -1.08268,14.63743 -1.23625,20.91061 l -0.27922,11.40579 1.43919,4.51479 c 4.11122,12.89712 4.96863,15.79068 5.82678,19.66408 1.0909,4.92394 1.24459,10.61349 0.33802,12.51362 -0.73031,1.5307 -2.37005,1.88748 -4.19032,0.91174 z"
       id="path107"
       transform="scale(0.26458333)" /><path
       style="fill:#ff9307;fill-opacity:0.826087;stroke-width:0.450843"
       d="m 261.62027,870.10088 c -14.74718,-7.57949 -36.79522,-31.09439 -51.81348,-55.26063 -21.47071,-34.54904 -34.84329,-79.94848 -39.76707,-135.00773 -0.40603,-4.54044 -0.60765,-14.67216 -0.59106,-29.70258 0.0267,-24.19684 0.53891,-32.55489 3.07262,-50.13794 4.60039,-31.92507 13.41099,-54.80206 29.1932,-75.80097 4.75203,-6.32278 13.67193,-15.55541 19.51029,-20.19432 22.21514,-17.65117 49.12231,-26.61694 79.88009,-26.61694 8.45303,0 22.20856,0.90596 26.04377,1.71528 1.36977,0.28906 1.3706,0.29146 1.09494,3.20774 -0.84103,8.89738 -22.77731,145.51616 -26.52388,165.19022 -0.84261,4.42477 -1.13779,5.25076 -1.87641,5.25076 -1.17874,0 -2.73157,2.75525 -5.628,9.98596 -3.10953,7.76273 -5.16047,15.00996 -8.38031,29.61285 -5.68787,25.79612 -7.35216,30.54236 -13.25101,37.78949 -4.77249,5.86331 -10.11859,13.9195 -12.2373,18.44071 -2.4534,5.23541 -2.9883,9.45217 -1.40044,11.04003 0.8834,0.8834 1.55805,1.01071 5.35612,1.01071 3.41311,0 5.8857,0.37956 11.5246,1.76909 3.94855,0.973 7.26458,1.82472 7.36896,1.89272 0.17889,0.11654 -1.16469,9.11792 -1.70566,11.4271 -0.23584,1.00672 -0.49083,1.0695 -4.35734,1.07288 -7.78782,0.007 -12.57928,1.24423 -21.26825,5.49264 -6.2134,3.03801 -14.80294,8.62005 -21.614,14.04619 -6.67438,5.31727 -8.98633,7.69901 -8.98633,9.25763 0,1.22407 0.0662,1.25345 2.2574,1.0013 1.24157,-0.14288 5.5722,-1.02308 9.62363,-1.95601 9.15735,-2.10868 18.14985,-3.50046 25.22958,-3.90481 5.59934,-0.3198 13.08931,0.076 14.1787,0.74931 0.6558,0.4053 -0.55416,8.79759 -7.36315,51.07086 -1.68048,10.43315 -3.05541,19.04096 -3.05541,19.12846 0,0.48992 -1.56731,-0.0551 -4.5148,-1.57 z m 8.59917,-193.15612 c 9.09645,-1.2652 13.1801,-5.02093 11.64758,-10.71227 -1.78739,-6.63789 -11.77796,-12.01581 -26.33808,-14.17778 -5.76657,-0.85625 -19.58817,-0.98387 -27.00639,-0.24935 -13.19054,1.30606 -25.04812,4.26179 -27.68812,6.90179 -1.12494,1.12494 -0.95993,3.6612 0.3162,4.86005 3.75603,3.52862 31.37625,11.24206 47.87575,13.37016 4.57039,0.58949 16.97687,0.59382 21.19306,0.007 z m 18.6371,-24.76545 c 0.12689,-1.09864 -1.03652,-2.45333 -8.31672,-9.68407 -11.0183,-10.94346 -17.69456,-16.29592 -24.86006,-19.93068 l -2.61383,-1.32588 -12.59389,0.28498 c -16.08735,0.36404 -40.23554,2.53733 -41.70027,3.75294 -0.8453,0.70155 -0.73897,2.12291 0.18535,2.4776 0.42985,0.16495 8.50301,0.6145 17.94035,0.99901 21.44083,0.87355 30.65569,1.51532 34.1281,2.37685 6.01164,1.49154 16.82029,8.04316 28.89149,17.51247 6.92894,5.43544 8.64193,6.11316 8.93948,3.53678 z"
       id="path108"
       transform="scale(0.26458333)" /><path
       style="fill:#ff9307;fill-opacity:0.826087;stroke-width:0.450843"
       d="m 262.98142,870.45211 c -11.99321,-5.68374 -29.62435,-22.79626 -44.50377,-43.1947 -23.36924,-32.03726 -38.46433,-73.44758 -45.68448,-125.32618 -2.79382,-20.0743 -2.89445,-21.82559 -2.89445,-50.37556 0,-28.15818 0.21875,-32.51556 2.43347,-48.4746 4.72649,-34.05856 13.21175,-56.80032 29.11517,-78.03294 4.79067,-6.39601 14.84438,-16.8885 20.25265,-21.13657 16.84232,-13.22921 36.40671,-21.53633 58.51064,-24.84386 7.86909,-1.1775 19.52541,-1.63437 29.84738,-1.16987 9.87035,0.44417 17.37127,1.18879 17.97147,1.78403 0.19289,0.1913 -0.29587,4.83072 -1.08612,10.30984 -3.2217,22.33722 -19.49499,123.54385 -24.22076,150.63342 -1.8285,10.48157 -1.9644,10.97935 -3.30841,12.11865 -1.54517,1.30983 -3.28426,4.63613 -5.87075,11.22877 -2.58238,6.58216 -4.24491,12.58302 -7.91752,28.57823 -4.12818,17.97927 -6.21998,25.48098 -8.31167,29.80763 -0.88673,1.83419 -3.76135,6.18387 -6.38804,9.66595 -8.96074,11.87883 -12.82211,19.19883 -12.85391,24.36715 -0.0225,3.65991 0.51192,4.03082 6.37312,4.42313 4.59258,0.30739 10.7403,1.43924 15.82805,2.91411 2.24246,0.65005 2.49502,0.85776 2.49502,2.05197 0,1.46601 -1.41996,10.17402 -1.70908,10.48105 -0.0999,0.10609 -2.91065,0.34637 -6.24609,0.53395 -4.94393,0.27804 -6.88765,0.61758 -10.51975,1.83769 -8.59777,2.88819 -19.28032,9.09564 -29.84414,17.34192 -6.49273,5.06831 -9.18513,7.88653 -9.18513,9.61436 0,1.24254 0.0447,1.26054 2.49502,1.00475 1.37226,-0.14325 6.02368,-1.0189 10.3365,-1.94588 13.26084,-2.85023 20.69208,-3.73273 29.90014,-3.5508 4.42301,0.0874 8.18633,0.3038 8.36292,0.48092 0.1766,0.17711 0.0714,2.3157 -0.23371,4.75241 -0.46061,3.67837 -6.56427,42.88678 -9.43835,60.62971 l -0.7894,4.87327 z m 9.01083,-193.67782 c 6.50101,-1.24384 9.79945,-3.77008 10.18686,-7.802 0.50598,-5.26582 -4.37617,-10.39344 -13.00152,-13.6552 -7.76404,-2.93606 -12.25242,-3.61836 -25.45428,-3.86949 -9.63113,-0.1832 -13.52668,-0.0654 -18.53441,0.56025 -10.86079,1.357 -20.64496,3.84901 -23.80545,6.06318 -1.04191,0.72995 -1.30691,1.2876 -1.30691,2.75026 0,2.07222 0.66938,2.92309 3.3925,4.31232 7.21629,3.68148 32.40123,10.34913 45.31972,11.99828 4.06816,0.51934 19.895,0.27543 23.20349,-0.3576 z m 16.86528,-24.60526 c 0.12526,-1.08599 -0.74587,-2.20667 -5.56353,-7.15728 -10.79444,-11.09233 -19.81692,-18.56599 -26.91404,-22.29393 l -3.31403,-1.74078 -12.83151,0.42433 c -17.9359,0.59312 -35.47796,2.043 -40.24332,3.32618 -1.46441,0.39432 -1.81552,0.70968 -1.81552,1.63061 0,0.62795 0.20752,1.26999 0.46116,1.42675 0.25363,0.15675 9.18223,0.70075 19.84131,1.20889 24.07902,1.14787 30.45922,1.69147 34.10207,2.90553 5.74627,1.91507 14.5333,7.27499 25.08306,15.3002 3.33456,2.5366 6.7563,5.03933 7.60386,5.5616 2.06667,1.27352 3.40069,1.05353 3.59049,-0.5921 z"
       id="path109"
       transform="scale(0.26458333)" /><path
       style="fill:#ff9307;fill-opacity:0.826087;stroke-width:0.450843"
       d="m 262.22231,870.02625 c -12.87772,-6.66951 -31.21786,-24.95411 -45.57477,-45.43676 -24.66605,-35.19046 -39.45076,-79.90065 -45.8469,-138.64487 -0.54374,-4.99394 -0.77975,-13.00867 -0.8797,-29.87416 -0.18864,-31.83002 0.34371,-40.8467 3.56342,-60.35563 2.18834,-13.25961 3.71198,-19.71242 7.18174,-30.41544 9.52027,-29.3668 28.45035,-54.42973 52.21309,-69.12876 15.30533,-9.46749 32.54112,-15.34809 51.61855,-17.6115 9.94709,-1.18016 29.87649,-0.91332 41.16128,0.55112 l 2.2574,0.29294 -9.5e-4,1.95855 c -0.002,3.90025 -8.91998,60.86346 -20.70782,132.26878 -6.12375,37.09485 -6.22341,37.59254 -7.82649,39.08652 -3.2092,2.99078 -7.8665,15.29548 -11.54724,30.50817 -1.41417,5.84481 -3.58254,14.87172 -4.8186,20.0598 -3.89294,16.3397 -5.06966,19.13252 -12.02531,28.54072 -8.9164,12.0603 -12.93405,19.6365 -12.93405,24.39015 0,3.74964 0.41015,4.01464 7.30598,4.72039 5.28194,0.54057 9.03933,1.27275 15.60706,3.04126 1.52158,0.40972 1.79927,0.68357 1.79799,1.77315 -0.002,1.94337 -1.43488,9.78767 -1.86849,10.2311 -0.20876,0.21348 -3.07835,0.57941 -6.37689,0.81317 -6.92767,0.49095 -11.74391,1.88892 -18.935,5.49615 -12.73667,6.38901 -30.32229,19.84327 -30.32229,23.19871 0,1.67135 0.93985,1.63161 11.05624,-0.46748 15.14264,-3.14201 18.1681,-3.55404 28.15116,-3.83381 6.35326,-0.17805 9.94382,-0.0945 10.8288,0.25204 1.27625,0.49971 1.31313,0.60854 1.02284,3.01869 -0.33887,2.81347 -3.65778,24.93025 -4.72548,31.49 -0.3829,2.35244 -1.77403,11.12064 -3.0914,19.48489 -1.31738,8.36424 -2.44334,15.49747 -2.50213,15.85161 -0.0761,0.45831 -1.16613,0.0953 -3.78204,-1.2595 z m 8.76502,-193.09296 c 9.75206,-1.51309 13.61053,-6.61148 9.89984,-13.08115 -2.20565,-3.84561 -6.36273,-6.68452 -13.32638,-9.10073 -8.14072,-2.82462 -11.16253,-3.18327 -26.85113,-3.18693 -12.70106,-0.003 -14.93157,0.11444 -20.43537,1.07556 -8.20465,1.43275 -14.56831,3.15465 -17.53535,4.74476 -2.19944,1.17872 -2.43874,1.46944 -2.57506,3.12826 -0.18019,2.19286 0.65256,3.27314 3.71459,4.81866 6.63508,3.34899 29.5229,9.39787 44.67267,11.80628 2.70935,0.43071 19.31745,0.27918 22.43619,-0.20471 z m 17.868,-24.74138 c 0.12245,-1.0585 -0.83424,-2.27679 -5.86698,-7.4713 -10.20681,-10.53489 -19.35128,-18.12536 -26.29044,-21.8227 l -3.73781,-1.99159 -13.01622,0.47663 c -22.03042,0.80672 -39.4308,2.45349 -41.17425,3.8967 -0.68567,0.56759 -0.79209,2.09785 -0.17252,2.48077 0.23185,0.14329 6.808,0.5806 14.61367,0.9718 24.68564,1.23718 32.14914,1.73347 35.95265,2.39069 6.13194,1.05956 15.47113,6.30731 27.90218,15.67842 9.69079,7.30536 11.4739,8.12065 11.78972,5.39058 z"
       id="path110"
       transform="scale(0.26458333)" /><path
       style="fill:#ff9307;fill-opacity:0.826087;stroke-width:0.450843"
       d="m 260.78434,869.26649 c -12.96707,-7.38961 -30.23578,-24.89569 -44.295,-44.9039 -24.39662,-34.71973 -39.41986,-80.17524 -45.64736,-138.11431 -0.91292,-8.49354 -1.35887,-47.97654 -0.68708,-60.83088 1.11096,-21.25725 5.23531,-44.49375 10.83932,-61.06849 9.93505,-29.38445 28.34347,-53.6161 51.71335,-68.07212 15.46131,-9.56397 32.77173,-15.48276 51.78726,-17.70713 9.80516,-1.14697 30.23411,-0.89372 41.16419,0.5103 l 2.2574,0.28997 -0.004,1.97518 c -0.008,3.57025 -6.16536,43.38054 -17.10147,110.56779 -9.21635,56.62174 -9.67519,59.05759 -11.47056,60.89424 -1.71437,1.75376 -3.28681,4.84574 -5.87157,11.54554 -2.53771,6.57785 -4.31985,12.8916 -7.3456,26.02393 -6.6989,29.07454 -7.34806,30.8367 -15.46111,41.97006 -8.84004,12.13098 -12.07582,18.1527 -12.4835,23.23156 -0.34344,4.27857 0.25969,4.79566 6.10092,5.23061 4.57918,0.34097 11.14507,1.54901 15.8446,2.9152 2.39619,0.69659 2.64476,0.89384 2.64476,2.09861 0,1.97624 -1.41267,9.71038 -1.8543,10.15202 -0.21039,0.21039 -2.92672,0.57909 -6.0363,0.81934 -3.10958,0.24025 -6.93693,0.77466 -8.50522,1.18759 -8.88229,2.33869 -23.34295,10.8051 -34.93725,20.45505 -4.48257,3.73084 -6.17112,5.72536 -6.17112,7.28934 0,1.42222 1.09061,1.32975 13.13003,-1.11338 5.71693,-1.16012 12.21221,-2.38318 14.43396,-2.71793 5.16389,-0.77803 22.54363,-0.85311 23.29921,-0.10065 0.64252,0.63987 -0.26969,7.31636 -5.54323,40.57098 -1.96888,12.41567 -3.80125,24.0175 -4.07192,25.78183 -0.37869,2.46847 -0.67325,3.20788 -1.2779,3.20788 -0.43217,0 -2.43473,-0.93971 -4.45013,-2.08823 z m 14.00212,-193.18951 c 6.57374,-2.10785 8.92379,-6.14646 6.58031,-11.30838 -1.9984,-4.40182 -8.08366,-8.40768 -16.45897,-10.83475 -7.29833,-2.11497 -10.05351,-2.37852 -24.67338,-2.36015 -12.06026,0.0152 -14.5538,0.15015 -19.96013,1.08059 -10.96023,1.88627 -19.15213,4.57099 -19.90082,6.52206 -1.00146,2.60976 0.11182,4.48004 3.74262,6.28753 4.37411,2.17751 21.7312,7.18577 33.39238,9.63512 10.00198,2.10084 12.30667,2.31294 23.39894,2.1534 9.36924,-0.13477 11.08734,-0.28027 13.87905,-1.17542 z M 288.72572,653.192 c 0.72128,-1.16706 -0.55014,-3.07503 -5.42771,-8.14514 -9.9038,-10.29474 -20.07092,-18.69048 -27.21406,-22.47265 l -3.16011,-1.67323 -12.52285,0.47245 c -14.38623,0.54276 -23.69895,1.16762 -32.46562,2.17838 -6.84505,0.78921 -8.29576,1.06645 -9.16574,1.75169 -0.67987,0.5355 -0.79474,2.07236 -0.18316,2.45034 0.226,0.13967 9.04766,0.68495 19.6037,1.21172 22.45893,1.12075 29.64559,1.68811 33.17142,2.61876 5.1975,1.37189 15.15795,7.22443 24.93915,14.6537 8.8636,6.73231 11.61148,8.27024 12.42498,6.95398 z"
       id="path111"
       transform="scale(0.26458333)" /><path
       style="fill:#ff9307;fill-opacity:0.826087;stroke-width:0.450843"
       d="m 371.87623,695.00731 c -14.62336,-1.11221 -29.8382,-3.62434 -37.54405,-6.19892 -5.49772,-1.83682 -12.30673,-5.09192 -14.73248,-7.04297 -4.94741,-3.97923 -5.32157,-8.48659 -1.01813,-12.26506 5.37491,-4.71924 21.06565,-4.84088 35.6969,-0.27674 14.84445,4.63064 33.17792,13.98897 38.4528,19.62823 2.88692,3.08636 2.89909,4.60834 0.0459,5.74018 -1.84814,0.73314 -13.64097,0.96746 -20.90094,0.41528 z"
       id="path112"
       transform="scale(0.26458333)" /><path
       style="fill:#ff9307;fill-opacity:0.826087;stroke-width:0.450843"
       d="m 368.31192,694.53767 c -12.81846,-1.34091 -25.10476,-3.43028 -32.11168,-5.46081 -4.72993,-1.37068 -13.00617,-5.15442 -16.04014,-7.33325 -2.4149,-1.73426 -4.12471,-4.48382 -4.12471,-6.633 0,-7.76865 12.71897,-10.98176 30.15299,-7.61735 18.08951,3.49092 48.26181,19.03178 48.26181,24.85824 0,2.03627 -1.72289,2.3851 -12.35627,2.50181 -5.35835,0.0588 -11.56025,-0.0832 -13.782,-0.31564 z"
       id="path113"
       transform="scale(0.26458333)" /><path
       style="fill:#ff9307;fill-opacity:0.826087;stroke-width:0.450843"
       d="m 367.12382,694.24128 c -16.3878,-2.08397 -27.51319,-4.14406 -33.07449,-6.12441 -10.10391,-3.59795 -16.48088,-7.76194 -17.49128,-11.42134 -1.01954,-3.69245 1.79509,-7.33914 6.97747,-9.04016 3.82675,-1.25606 16.62978,-1.26972 22.44006,-0.0239 15.22756,3.26491 37.69148,13.6199 45.60508,21.02214 3.45297,3.22985 3.50831,4.69328 0.20641,5.45923 -1.75965,0.40818 -21.64894,0.51181 -24.66325,0.12849 z"
       id="path114"
       transform="scale(0.26458333)" /><path
       style="fill:#ff9307;fill-opacity:0.826087;stroke-width:0.450843"
       d="m 395.87591,657.8626 c -14.6992,-4.47479 -30.19737,-8.76046 -35.84211,-9.91134 -4.13801,-0.84367 -5.24099,-0.89781 -9.02958,-0.44317 -7.16406,0.85971 -21.91486,5.09148 -32.86624,9.42882 -2.49711,0.98899 -3.89153,0.76556 -3.38936,-0.54308 0.35218,-0.91777 18.41795,-9.97392 25.12853,-12.59662 6.5568,-2.5626 13.30224,-4.35748 16.38177,-4.35899 3.31705,-0.002 9.18498,1.76871 19.65686,5.93044 7.87083,3.12802 22.87803,9.63289 29.22167,12.66613 2.31724,1.108 3.28175,2.46183 2.04877,2.87574 -0.33956,0.11399 -5.4292,-1.25758 -11.31031,-3.04793 z"
       id="path115"
       transform="scale(0.26458333)" /><path
       style="fill:#ff9307;fill-opacity:0.826087;stroke-width:0.450843"
       d="m 406.09359,660.45587 c -0.52276,-0.10563 -8.22167,-2.30307 -17.10868,-4.88321 -26.06058,-7.56607 -29.08985,-8.2817 -34.93023,-8.25181 -3.96103,0.0203 -6.26402,0.34079 -11.16816,1.55431 -7.36059,1.82136 -13.87915,3.7917 -20.67299,6.24873 -6.86423,2.48249 -7.12917,2.54979 -7.12562,1.81027 0.004,-0.78672 1.06062,-1.39143 11.87803,-6.79649 9.99162,-4.99245 15.79972,-7.38374 22.04188,-9.07499 7.44408,-2.0169 10.41643,-1.63627 22.37163,2.86482 6.65942,2.50725 23.01992,9.42618 30.67459,12.97241 4.63591,2.14771 6.88993,4.13189 4.03955,3.55596 z"
       id="path116"
       transform="scale(0.26458333)" /><path
       style="fill:#ff9307;fill-opacity:0.826087;stroke-width:0.450843"
       d="m 390.41064,655.79744 c -26.24611,-7.70504 -29.43842,-8.44735 -36.35596,-8.45382 -5.31066,-0.005 -6.67113,0.18154 -12.83151,1.75914 -3.79005,0.97058 -10.9933,3.14923 -16.00723,4.84144 -5.01394,1.69221 -9.23764,3.07674 -9.38602,3.07674 -0.14837,0 -0.26977,-0.20391 -0.26977,-0.45314 0,-0.56736 19.32465,-10.23026 24.5233,-12.26238 7.10326,-2.77661 12.02163,-4.00845 16.11224,-4.03541 3.30891,-0.0218 4.64467,0.25998 10.25689,2.16379 10.48876,3.55806 36.86884,14.8344 39.23824,16.77264 0.82574,0.67549 1.07538,1.09697 0.6404,1.08126 -0.39208,-0.0142 -7.55634,-2.03478 -15.92058,-4.49026 z"
       id="path117"
       transform="scale(0.26458333)" /><path
       style="fill:#ff9307;fill-opacity:0.826087;stroke-width:0.450843"
       d="m 389.69777,655.55398 c -26.71032,-7.74071 -28.63029,-8.17815 -35.88071,-8.17493 -5.58608,0.002 -6.80155,0.16805 -12.68366,1.72769 -5.1311,1.36052 -21.20399,6.37202 -25.0903,7.82311 -0.60009,0.22407 -0.61928,0.14434 -0.11477,-0.47683 0.91222,-1.12316 20.12042,-10.54926 25.98845,-12.75339 9.21377,-3.46085 14.34844,-4.11997 20.2276,-2.59652 8.30291,2.1515 43.28363,16.92339 44.41657,18.75651 0.16588,0.26841 0.12859,0.47853 -0.0829,0.46695 -0.21146,-0.0116 -7.76259,-2.15925 -16.7803,-4.77259 z"
       id="path118"
       transform="scale(0.26458333)" /><path
       style="fill:#ff9307;fill-opacity:0.826087;stroke-width:0.450843"
       d="m 392.78684,656.48811 c -30.1346,-8.85968 -35.16309,-9.90619 -43.15034,-8.98027 -4.94117,0.57281 -17.02823,3.8354 -28.10059,7.58504 -9.33206,3.16028 -7.89991,2.01926 6.27545,-4.99977 18.03438,-8.92985 26.27602,-11.07778 34.41415,-8.96898 10.49285,2.71897 49.08125,19.53429 44.01494,19.18 -0.34215,-0.0239 -6.39628,-1.74114 -13.45361,-3.81602 z"
       id="path119"
       transform="scale(0.26458333)" /><path
       style="fill:#ff9307;fill-opacity:0.826087;stroke-width:0.450843"
       d="m 386.84633,654.83937 c -24.28484,-7.00315 -26.40084,-7.47637 -33.26689,-7.43976 -4.79038,0.0255 -6.37491,0.26553 -12.83151,1.94338 -4.05143,1.05283 -11.32262,3.21079 -16.1582,4.79547 -4.83558,1.58469 -8.84543,2.88152 -8.91077,2.88186 -1.93993,0.0101 16.86865,-9.72836 24.77764,-12.82904 10.94553,-4.29113 16.57117,-4.82576 24.40414,-2.31921 7.90863,2.53075 29.48129,11.49937 38.10007,15.83972 3.19502,1.60898 4.55965,2.686 3.27964,2.58841 -0.34215,-0.0261 -9.06951,-2.48346 -19.39412,-5.46083 z"
       id="path120"
       transform="scale(0.26458333)" /><path
       style="fill:#ff9307;fill-opacity:0.826087;stroke-width:0.450843"
       d="m 514.71725,736.34395 c -8.87569,-1.74087 -25.36787,-10.11394 -39.47606,-20.04196 -26.56048,-18.69077 -46.44901,-40.54767 -64.96967,-71.3997 -24.20424,-40.31984 -41.30434,-88.41674 -48.32386,-135.91898 -2.56428,-17.35293 -2.88565,-21.51796 -2.86021,-37.06881 0.0261,-15.95504 0.58344,-21.65669 3.30161,-33.7761 10.66215,-47.53912 44.29684,-81.10357 93.72055,-93.52486 9.49196,-2.38554 26.73544,-5.12628 26.73544,-4.24942 0,0.2186 3.52866,39.48535 7.84148,87.25945 4.31281,47.7741 7.84148,87.15444 7.84148,87.51187 0,0.4128 -0.34184,0.56049 -0.93702,0.40485 -1.17532,-0.30735 -1.63101,0.71024 -2.59698,5.79929 -1.64274,8.65452 -1.87541,12.28338 -1.67588,26.13827 0.10916,7.5801 0.20085,19.77003 0.20374,27.08875 0.006,15.31713 -0.0502,15.63668 -4.27134,24.26934 -6.56623,13.42853 -9.30708,27.87569 -5.74029,30.25731 0.89452,0.59728 2.82585,0.40103 5.58013,-0.56702 2.21609,-0.77889 4.0348,-0.9408 11.14871,-0.99251 l 8.50063,-0.0618 0.79805,9.19042 c 0.43893,5.05473 0.89021,10.05526 1.00287,11.11228 l 0.20482,1.92185 -7.41564,-0.0822 c -11.92438,-0.13211 -29.83398,-2.56803 -48.9545,-6.65836 -4.45134,-0.95225 -8.42099,-1.60564 -8.82145,-1.45197 -0.40046,0.15367 -0.72794,0.7673 -0.72773,1.36361 2.8e-4,0.78842 1.18163,2.05659 4.33028,4.64852 14.66788,12.0744 28.7566,21.50157 40.46658,27.07735 8.38692,3.99349 12.83475,5.31014 18.89593,5.59361 l 5.00087,0.23387 2.29658,25.72524 c 1.26312,14.14888 2.41092,26.848 2.55066,28.22026 0.2853,2.80157 0.35609,2.76321 -3.64978,1.9775 z M 474.3205,554.64496 c 7.14383,-1.27451 9.64738,-3.59052 9.3627,-8.66135 -0.12687,-2.25986 -0.46772,-3.35832 -1.50774,-4.85908 -3.94519,-5.6929 -17.31816,-10.99018 -31.40919,-12.44177 -6.94789,-0.71573 -23.75679,-0.33307 -31.38116,0.7144 -13.16063,1.80807 -18.5812,4.53605 -16.6865,8.39772 1.9445,3.96319 33.94162,14.27948 52.10721,16.80006 5.95129,0.82577 15.03591,0.84906 19.51468,0.05 z M 485.42,519.38777 c 0.41346,-0.15865 0.75174,-0.76958 0.75174,-1.35762 0,-2.35639 -23.59736,-15.52469 -34.21737,-19.0947 -7.21437,-2.42517 -11.45337,-1.90967 -28.03923,3.40983 -8.76313,2.81055 -30.45656,10.64391 -31.27004,11.29141 -0.94645,0.75335 -0.49142,2.45276 0.70225,2.62271 0.56966,0.0811 6.66463,-1.13185 13.54437,-2.69546 17.70016,-4.02285 31.82244,-6.76736 36.36959,-7.06802 2.24036,-0.14813 5.17368,-0.0138 6.891,0.31552 5.04411,0.96735 16.81854,5.13132 25.56412,9.04063 9.27782,4.14723 8.67878,3.92895 9.70357,3.5357 z"
       id="path121"
       transform="scale(0.26458333)" /><path
       style="fill:#ff9307;fill-opacity:0.826087;stroke-width:0.450843"
       d="m 512.86684,735.6423 c -3.90776,-1.05149 -8.28361,-2.87448 -15.28932,-6.36953 -28.39889,-14.16784 -56.0091,-38.65748 -75.83252,-67.2618 -29.04973,-41.91745 -49.97796,-94.58589 -58.64174,-147.57908 -2.821,-17.25501 -3.38272,-22.85554 -3.66862,-36.57688 -0.342,-16.41431 0.2539,-25.06804 2.47802,-35.98575 8.0687,-39.6075 30.4771,-69.13638 65.56679,-86.40123 9.4045,-4.6272 17.39889,-7.59414 27.4806,-10.1988 7.84185,-2.02599 18.61475,-4.04997 24.29721,-4.5649 l 3.58779,-0.32512 v 1.27568 c 0,0.70163 3.42173,39.38273 7.60386,85.95801 4.18212,46.57527 7.60385,85.38068 7.60385,86.23424 0,1.22493 -0.1964,1.55193 -0.93216,1.55193 -1.04654,0 -1.45047,1.1486 -2.59532,7.38 -1.31687,7.16768 -1.40779,9.57553 -1.43513,38.00553 -0.031,32.28102 0.38117,28.54234 -4.22136,38.28766 -4.41607,9.35054 -6.97423,18.44488 -6.97423,24.79364 0,5.58545 1.55254,6.62365 7.29834,4.88046 2.67386,-0.81121 19.31282,-1.59337 19.31915,-0.90814 0.002,0.23685 0.42812,4.92166 0.9465,10.4107 0.51839,5.48903 0.94432,10.28048 0.94651,10.64766 0.003,0.55935 -1.36376,0.61992 -8.43156,0.37355 -12.78642,-0.4457 -26.08998,-2.23323 -45.23313,-6.07776 -11.37005,-2.28345 -11.91462,-2.3073 -11.91462,-0.52189 0,1.60322 1.01074,2.6071 8.79196,8.73237 14.9635,11.77906 28.7118,20.46265 40.06876,25.30792 5.27735,2.2515 8.90061,3.15151 14.49589,3.60077 2.56539,0.20597 4.77489,0.48505 4.91,0.62016 0.2856,0.28561 4.89215,50.42683 4.90913,53.43475 0.0107,1.8968 -0.0682,2.01786 -1.29551,1.98849 -0.7188,-0.0172 -2.44642,-0.33789 -3.83914,-0.71264 z M 475.37583,554.61972 c 3.88115,-0.82241 6.56481,-2.24749 7.63083,-4.05211 1.01793,-1.72322 1.03457,-6.23027 0.0308,-8.34554 -2.30913,-4.86612 -11.36684,-9.60873 -23.71686,-12.41811 -4.54432,-1.03374 -6.73349,-1.22132 -16.74762,-1.43504 -24.0188,-0.51259 -40.51895,2.72105 -40.51895,7.94076 0,1.45392 1.74157,3.09782 4.92759,4.65127 10.55204,5.14497 35.62947,12.32553 49.01229,14.03396 3.91651,0.49997 16.39145,0.25849 19.38191,-0.37519 z m 10.70245,-36.19166 c 0.099,-0.69391 -0.44787,-1.51731 -1.74527,-2.62784 -4.29243,-3.67417 -22.50202,-13.47191 -30.92272,-16.63809 -3.62659,-1.3636 -4.61311,-1.53134 -9.05978,-1.54042 -4.15731,-0.008 -5.90205,0.24109 -10.45531,1.49559 -6.12575,1.68776 -21.299,6.752 -32.07878,10.70666 -9.80244,3.59611 -9.81721,3.60387 -9.64682,5.0679 0.13265,1.13976 0.2984,1.21528 2.51821,1.14728 1.30691,-0.04 8.79196,-1.47251 16.63344,-3.18328 23.7758,-5.18715 29.60243,-6.15823 35.40547,-5.90072 4.45413,0.19765 5.78112,0.48979 12.35627,2.72026 4.05143,1.37436 11.21569,4.17628 15.92058,6.22649 8.85141,3.85712 10.82075,4.30633 11.07471,2.52617 z"
       id="path122"
       transform="scale(0.26458333)" /><path
       style="fill:#ff9307;fill-opacity:0.826087;stroke-width:0.450843"
       d="m 515.63669,736.02879 c -5.67527,-0.78386 -21.61929,-8.25399 -32.7111,-15.32589 -20.74353,-13.22562 -40.53625,-31.53301 -55.58576,-51.41436 -22.37697,-29.56139 -42.2622,-70.4888 -54.10376,-111.35539 -4.79107,-16.53452 -7.94594,-30.97479 -10.87816,-49.79077 -2.3037,-14.78281 -2.75254,-22.12469 -2.45812,-40.20858 0.20963,-12.87588 0.42053,-16.43068 1.24411,-20.96946 4.07255,-22.44415 11.89001,-41.05439 23.95571,-57.02895 4.20282,-5.56437 14.38694,-15.87427 19.80588,-20.05049 17.84776,-13.75474 36.98153,-22.12567 61.66439,-26.97787 4.83366,-0.9502 15.87607,-2.52461 16.02121,-2.28427 0.0416,0.0688 0.43826,4.6162 0.88152,10.10524 0.44326,5.48903 3.4722,39.92026 6.73097,76.51383 7.68597,86.30791 7.73453,86.87418 7.50435,87.51636 -0.10789,0.30097 -0.57511,0.64631 -1.03827,0.76743 -1.18096,0.30883 -2.88288,8.65816 -3.40079,16.68373 -0.22143,3.4314 -0.41887,16.82491 -0.43873,29.76335 -0.0199,12.93845 -0.21791,24.93292 -0.44008,26.65439 -0.28828,2.23366 -1.2871,5.09155 -3.48799,9.98007 -5.01301,11.13465 -6.98438,18.12578 -6.99926,24.82171 -0.0131,5.92365 1.03557,6.86579 6.39255,5.74288 3.58281,-0.75103 16.90124,-1.66829 18.82747,-1.29668 l 1.22858,0.23702 0.91836,10.38833 c 0.89687,10.14526 0.89753,10.39378 0.0285,10.62105 -1.33339,0.34869 -16.43465,-0.5153 -23.66965,-1.35422 -6.84335,-0.7935 -21.7504,-3.28718 -31.24455,-5.22665 -3.23788,-0.66144 -6.71308,-1.20262 -7.72267,-1.20262 -1.70201,0 -1.83561,0.0987 -1.83561,1.35679 0,1.69083 2.60855,4.21985 10.93055,10.5973 15.57422,11.93509 30.07318,20.74692 40.54696,24.64265 3.52289,1.31035 8.04342,2.26211 12.53649,2.63948 3.71696,0.31218 3.90748,0.38455 4.14631,1.57492 0.30646,1.52743 2.30209,22.44124 3.5882,37.60366 0.52102,6.14249 1.04586,12.16777 1.16631,13.3895 0.2444,2.47902 -0.24021,3.14391 -2.10388,2.88651 z M 477.95037,554.14544 c 1.35935,-0.47097 3.17158,-1.44071 4.02716,-2.15499 1.46379,-1.22203 1.56631,-1.51064 1.73697,-4.89025 0.15619,-3.0931 0.026,-3.86961 -0.9381,-5.59471 -2.9943,-5.35792 -16.66295,-11.34571 -29.17,-12.77844 -5.51132,-0.63134 -24.3679,-0.63708 -30.7102,-0.009 -16.6589,1.64882 -24.25234,5.57271 -19.53334,10.0938 3.87887,3.71619 28.53214,11.87034 46.45292,15.36445 5.07828,0.99013 6.79598,1.09625 15.68296,0.96886 8.11519,-0.11633 10.4419,-0.30308 12.45163,-0.99937 z m 8.12744,-35.71382 c 0.30899,-2.16526 -6.25273,-6.55323 -20.81669,-13.92059 -12.54438,-6.34574 -14.23795,-6.89698 -21.14823,-6.88357 -3.9486,0.008 -6.65314,0.27008 -8.79196,0.85306 -8.06135,2.19732 -39.28467,12.93048 -42.28219,14.5347 -0.7313,0.39139 -0.97986,0.90921 -0.87443,1.82176 0.11909,1.03081 0.4203,1.30006 1.57301,1.40605 1.31834,0.12123 10.54202,-1.68642 33.97975,-6.65933 8.58114,-1.82071 9.83012,-1.96849 16.87106,-1.99619 l 7.60386,-0.0299 5.46527,1.85541 c 3.0059,1.02047 9.74245,3.60845 14.9701,5.75105 5.22765,2.1426 9.82561,4.02214 10.21769,4.17675 1.47067,0.57993 3.08506,0.12591 3.23276,-0.90918 z"
       id="path123"
       transform="scale(0.26458333)" /><path
       style="fill:#ff9307;fill-opacity:0.826087;stroke-width:0.450843"
       d="m 510.19409,734.45085 c -2.33997,-0.7923 -7.79336,-3.20811 -12.11865,-5.36845 -27.05601,-13.51363 -53.15196,-35.93402 -72.53548,-62.31901 -22.80649,-31.04437 -42.31041,-72.44895 -53.83972,-114.29551 -4.43883,-16.11112 -8.63998,-37.27079 -10.80384,-54.41512 -0.91069,-7.2154 -1.32194,-34.8421 -0.64376,-43.24694 0.87494,-10.84353 4.22446,-24.51247 8.85065,-36.11833 4.4253,-11.10191 8.84266,-19.06067 15.48295,-27.89563 4.60649,-6.12897 13.72483,-15.57 19.61215,-20.30621 10.94662,-8.80629 26.57464,-17.18277 41.1661,-22.06467 10.11654,-3.38471 27.21162,-7.0594 35.08975,-7.54274 l 2.12398,-0.13031 0.85203,9.98007 c 0.46861,5.48903 3.30446,37.56781 6.30188,71.28617 2.99742,33.71837 5.67204,63.87242 5.94361,67.00901 0.27157,3.13659 0.81056,9.3287 1.19777,13.76023 0.92845,10.62598 0.91091,11.75203 -0.19785,12.70138 -0.91397,0.78257 -1.95384,4.56055 -2.94024,10.6823 -0.31134,1.93223 -0.66244,15.49647 -0.86528,33.42941 l -0.34135,30.17781 -1.22742,3.08907 c -0.67509,1.69899 -1.9153,4.58608 -2.75603,6.41576 -2.3206,5.0503 -5.067,12.96537 -5.9028,17.01174 -1.00966,4.88808 -0.99363,10.7029 0.0335,12.1694 0.85497,1.22064 0.86359,1.2207 10.38664,0.0783 2.09106,-0.25085 6.38373,-0.46762 9.53926,-0.48172 l 5.73733,-0.0256 0.807,9.14839 c 0.44384,5.03162 0.8026,9.73651 0.79723,10.45531 l -0.01,1.30691 -6.05932,-4e-4 c -10.85213,-7.1e-4 -22.83582,-1.45953 -43.29615,-5.2706 -6.88835,-1.28307 -13.25064,-2.33286 -14.13842,-2.33286 -1.46426,0 -1.61415,0.12797 -1.61415,1.37804 0,1.66765 2.60768,4.17451 11.13341,10.70299 17.02227,13.03463 31.90809,21.85143 42.53164,25.19129 2.20129,0.69205 6.22328,1.50078 8.93777,1.79718 3.62473,0.39578 5.03707,0.73806 5.31818,1.28888 0.45059,0.88289 0.44714,0.84977 2.86718,27.55521 1.68117,18.55183 2.10274,24.1412 1.96595,26.06536 -0.0705,0.99099 -2.87114,0.66257 -7.38579,-0.86608 z M 477.95037,554.13708 c 1.35935,-0.46637 3.16487,-1.42675 4.01225,-2.13418 1.39822,-1.16729 1.55927,-1.57772 1.74139,-4.43796 0.26579,-4.17405 -0.053,-5.21487 -2.36626,-7.7244 -3.73057,-4.0472 -11.54624,-7.7326 -21.2976,-10.04267 -4.46579,-1.05794 -6.34852,-1.21039 -17.71906,-1.43481 -20.88671,-0.41223 -34.11756,1.43094 -38.84873,5.41196 -3.0097,2.53249 -1.39999,5.06965 5.14252,8.10541 7.8726,3.65294 31.19226,10.52914 43.10187,12.70933 5.58376,1.02218 22.80074,0.72509 26.23362,-0.45268 z m 8.12744,-35.70546 c 0.18107,-1.26879 -2.72914,-3.88676 -7.57158,-6.81127 -5.38324,-3.25111 -23.11485,-12.09532 -26.31424,-13.12506 -3.75432,-1.20837 -12.37941,-1.20796 -16.87106,7.8e-4 -7.70826,2.07437 -38.71557,12.68915 -41.96898,14.36732 -1.04352,0.53826 -1.30352,0.96912 -1.1881,1.9688 0.11313,0.97989 0.43957,1.31359 1.39323,1.42419 1.09571,0.12708 8.52432,-1.30978 33.99651,-6.57568 9.06771,-1.87458 15.07306,-2.52932 20.54494,-2.23994 3.93446,0.20809 5.49235,0.57287 11.22208,2.62767 3.65936,1.31232 9.64739,3.61506 13.30675,5.11721 3.65936,1.50215 7.61574,3.1218 8.79196,3.59923 2.74881,1.11574 4.46747,0.98541 4.65849,-0.35325 z"
       id="path124"
       transform="scale(0.26458333)" /><path
       style="fill:#ff9307;fill-opacity:0.826087;stroke-width:0.450843"
       d="m 510.97107,734.70211 c -21.56491,-7.3458 -49.47314,-27.01751 -70.20646,-49.48652 -32.12856,-34.8182 -59.79793,-90.99641 -72.87224,-147.95543 -3.52974,-15.37752 -6.81498,-35.2893 -7.60577,-46.09839 -0.59434,-8.12399 -0.61801,-28.82744 -0.041,-35.86861 1.68318,-20.5398 9.99897,-44.12016 21.28913,-60.36773 5.64516,-8.12391 15.21057,-18.43841 22.66563,-24.44065 8.19221,-6.59574 21.54455,-14.38124 32.11106,-18.72337 8.7092,-3.5789 19.00625,-6.57537 30.40645,-8.84834 6.66034,-1.32795 15.33371,-2.44829 15.69262,-2.02703 0.15798,0.18542 1.07263,9.53305 2.03256,20.7725 0.95993,11.23946 2.26976,26.31648 2.91074,33.50451 11.39305,127.76293 10.70367,118.94678 9.41012,120.34256 -1.15452,1.24574 -1.70012,3.09816 -2.76812,9.39828 -0.61773,3.644 -0.83122,10.33536 -1.10687,34.69261 l -0.34152,30.17781 -1.78829,4.27717 c -7.40207,17.70414 -8.37563,20.84192 -8.69976,28.03923 -0.28683,6.36927 0.11111,7.14165 3.65432,7.09288 1.42816,-0.0196 4.62831,-0.28327 7.11144,-0.58581 2.48314,-0.30254 7.02763,-0.55379 10.09888,-0.55831 5.47594,-0.008 5.58412,0.0125 5.58602,1.06105 10e-4,0.58811 0.31932,4.49103 0.70723,8.67315 0.38791,4.18213 0.70783,8.40583 0.71092,9.38602 l 0.006,1.78215 -6.05932,-4e-4 c -10.83697,-7.1e-4 -22.77114,-1.45193 -43.34056,-5.27029 -6.91278,-1.28324 -13.27507,-2.33317 -14.13843,-2.33317 -1.38761,0 -1.56973,0.14851 -1.56973,1.28002 0,0.92332 0.697,1.94967 2.50122,3.68312 6.65117,6.39026 26.40862,20.23197 37.18142,26.04864 9.84161,5.31387 16.15318,7.44483 24.37315,8.22907 4.00867,0.38244 4.10908,0.49159 4.5598,4.95658 1.83141,18.14242 4.2875,47.6861 4.13854,49.78152 -0.0667,0.93796 -2.79562,0.68409 -6.60881,-0.61482 z M 474.21373,554.83719 c 4.01162,-0.52086 8.05292,-2.44464 8.97058,-4.27027 0.79174,-1.57513 0.77364,-6.29743 -0.0315,-8.21318 -2.02839,-4.8264 -12.4561,-10.24426 -25.02031,-12.99965 -5.79408,-1.27066 -32.73518,-1.28993 -40.75778,-0.0292 -8.4171,1.32278 -13.51342,3.22817 -14.98964,5.60427 -0.7998,1.28733 0.0679,3.22018 2.10941,4.69907 5.31957,3.85348 35.42386,13.22436 48.73889,15.17146 3.83414,0.56068 16.7726,0.58378 20.98034,0.0374 z M 485.42,519.38777 c 2.23918,-0.85925 -0.68521,-4.03461 -7.38586,-8.01971 -6.08919,-3.62144 -21.63426,-11.36553 -25.36691,-12.63703 -2.76991,-0.94355 -4.24139,-1.12954 -8.79196,-1.11124 -4.71087,0.0189 -6.20706,0.23561 -10.83911,1.56966 -9.09391,2.61908 -37.22414,12.34155 -39.98835,13.82091 -1.15092,0.61596 -1.31983,2.76101 -0.24974,3.17164 0.89908,0.34501 6.85439,-0.74651 27.79038,-5.09357 16.26578,-3.37736 16.45802,-3.40484 24.2373,-3.46398 l 7.84148,-0.0596 6.17814,2.2369 c 3.39797,1.2303 10.34837,3.94848 15.44534,6.04041 9.58325,3.93323 9.87612,4.02653 11.12929,3.54564 z"
       id="path125"
       transform="scale(0.26458333)" /><path
       style="fill:#ff9307;fill-opacity:0.826087;stroke-width:0.450843"
       d="m 514.33464,679.24765 c -0.26576,-0.33178 -1.05583,-6.90619 -1.75571,-14.60981 -1.20722,-13.28788 -1.22991,-14.03773 -0.44227,-14.61367 0.45664,-0.3339 1.43468,-0.60709 2.17343,-0.60709 1.94005,0 9.66483,-1.70835 16.53432,-3.6566 8.66282,-2.45686 18.22263,-5.81781 31.0534,-10.91749 10.31323,-4.09906 12.66879,-4.76652 12.66879,-3.58977 0,0.22021 -1.78354,2.52948 -3.96342,5.13172 -17.66114,21.08308 -36.42599,37.11473 -48.55074,41.47907 -4.93487,1.77633 -7.0933,2.16329 -7.7178,1.38364 z"
       id="path126"
       transform="scale(0.26458333)" /><path
       style="fill:#ff9307;fill-opacity:0.826087;stroke-width:0.450843"
       d="m 514.47637,678.8227 c -0.85288,-2.47004 -2.96652,-27.85039 -2.36757,-28.42948 0.24135,-0.23335 2.47048,-0.76836 4.95361,-1.1889 10.13155,-1.71585 23.34922,-5.83112 43.48457,-13.53872 11.40109,-4.36422 13.54437,-5.06194 13.54437,-4.4092 0,0.55847 -4.52798,6.02176 -10.72637,12.94203 -11.23749,12.54622 -23.67948,23.48053 -33.51723,29.45571 -6.38564,3.87846 -14.83577,6.71978 -15.37138,5.16856 z"
       id="path127"
       transform="scale(0.26458333)" /><path
       style="fill:#ff9307;fill-opacity:0.826087;stroke-width:0.450843"
       d="m 514.5351,677.8672 c -0.47714,-1.90485 -1.69763,-14.57002 -2.03861,-21.15502 l -0.3236,-6.24928 3.75167,-0.78338 c 13.65993,-2.85231 22.55953,-5.58329 42.82706,-13.14216 13.61393,-5.07738 14.86449,-5.48782 14.86449,-4.87855 0,0.72177 -9.86619,11.93894 -16.39582,18.6409 -13.79207,14.15609 -25.10425,22.86542 -34.70878,26.72253 -2.08216,0.83619 -4.66532,1.62122 -5.74034,1.74453 -1.74675,0.20034 -1.98452,0.10469 -2.23607,-0.89957 z"
       id="path128"
       transform="scale(0.26458333)" /><path
       style="fill:#ff9307;fill-opacity:0.826087;stroke-width:0.450843"
       d="m 514.53458,677.86738 c -0.44129,-1.75825 -1.69858,-14.95097 -2.04831,-21.4929 l -0.31597,-5.91053 2.80249,-0.5516 c 12.23512,-2.40817 23.11643,-5.70818 43.19799,-13.10077 16.27311,-5.9906 15.66589,-5.80238 15.05609,-4.66696 -0.68569,1.2767 -7.43784,9.01133 -13.80438,15.81299 -16.00932,17.10347 -33.09049,29.45739 -42.51552,30.74923 -1.91265,0.26216 -2.11376,0.191 -2.37239,-0.83946 z"
       id="path129"
       transform="scale(0.26458333)" /><path
       style="fill:#ff9307;fill-opacity:0.826087;stroke-width:0.450843"
       d="m 514.48427,677.57512 c -0.49632,-2.33787 -1.64934,-14.46021 -1.98436,-20.86269 l -0.32699,-6.24902 2.80118,-0.55633 c 12.22964,-2.42886 24.44107,-6.15714 44.86002,-13.69624 14.48366,-5.34767 14.00264,-5.20271 13.37532,-4.03056 -1.06774,1.99509 -11.59404,13.62813 -19.04049,21.04243 -13.67629,13.61724 -25.64669,22.20489 -34.69857,24.89301 -3.76133,1.11699 -4.65477,1.02012 -4.98611,-0.5406 z"
       id="path130"
       transform="scale(0.26458333)" /><path
       style="fill:#ff9307;fill-opacity:0.826087;stroke-width:0.450843"
       d="m 509.21565,626.01145 c -0.38218,-1.06552 -10.07003,-108.93128 -9.84059,-109.56642 0.87446,-2.42072 3.5064,2.65903 6.50824,12.56116 2.13698,7.04922 3.6643,14.87212 5.72119,29.30362 2.74342,19.24843 4.61621,27.54864 7.25729,32.16446 0.66895,1.16912 2.65561,4.02149 4.41479,6.3386 5.53208,7.28657 11.36977,19.85134 11.36977,24.47177 0,2.9181 -0.63392,3.17875 -7.79634,3.20566 -4.80419,0.018 -7.14441,0.26111 -10.26283,1.06596 -4.55677,1.17608 -7.05757,1.3305 -7.37152,0.45519 z"
       id="path131"
       transform="scale(0.26458333)" /><path
       style="fill:#ff9307;fill-opacity:0.826087;stroke-width:0.450843"
       d="m 509.29367,624.33946 c -0.7414,-4.63649 -9.87849,-107.60977 -9.57539,-107.91288 0.89603,-0.89603 3.33253,4.2617 5.69484,12.05518 2.20573,7.27688 3.53927,14.03035 6.19086,31.35236 3.35942,21.94599 4.75192,27.43498 8.25796,32.55137 1.16524,1.70045 3.27781,4.79307 4.69459,6.87249 5.06365,7.43199 9.61457,17.7961 9.61457,21.89591 0,2.7658 -0.28788,2.87118 -8.79197,3.21869 -3.70688,0.15148 -7.81092,0.59838 -9.2672,1.00914 -1.4376,0.4055 -3.49539,0.7398 -4.57286,0.7429 -1.89929,0.005 -1.96777,-0.049 -2.2454,-1.78516 z"
       id="path132"
       transform="scale(0.26458333)" /><path
       style="fill:#ff9307;fill-opacity:0.826087;stroke-width:0.450843"
       d="m 510.02937,625.53257 c -0.72766,-0.87678 -3.08583,-25.89573 -9.63399,-102.21164 -0.28777,-3.35376 -0.40946,-6.21151 -0.27042,-6.35054 1.01626,-1.01626 5.7823,12.58039 7.65549,21.83972 0.64716,3.19896 2.24774,12.50877 3.55684,20.68848 2.79804,17.48309 4.39209,24.93695 6.16974,28.85 0.71246,1.5683 3.10284,5.52993 5.31196,8.80362 4.53007,6.71312 7.79029,12.79588 9.67305,18.04751 1.27025,3.54314 1.76902,7.19706 1.07689,7.8892 -0.50618,0.50618 -4.75389,1.06417 -8.42742,1.10705 -1.69898,0.0198 -5.65537,0.46254 -8.79196,0.98381 -3.13659,0.52127 -5.73017,0.94837 -5.76351,0.94912 -0.0333,7.5e-4 -0.28384,-0.2676 -0.55667,-0.59633 z"
       id="path133"
       transform="scale(0.26458333)" /><path
       style="fill:#ff9307;fill-opacity:0.826087;stroke-width:0.450843"
       d="m 509.99437,625.29297 c -0.71986,-1.34507 -2.47598,-19.94063 -9.096,-96.31759 -1.13275,-13.06887 -1.12462,-12.66591 -0.23184,-11.48645 1.24134,1.63994 3.56373,7.79281 5.21366,13.8129 1.75132,6.39006 2.97278,12.80274 5.97787,31.38374 2.15449,13.32167 3.68645,20.59826 5.15828,24.5012 0.54759,1.45206 3.12512,5.90607 5.72786,9.89779 7.13903,10.94889 10.95165,19.33554 10.95165,24.09041 0,2.4317 0.16369,2.37374 -8.5879,3.04105 -3.51021,0.26765 -8.19999,0.80756 -10.42174,1.19979 -2.22176,0.39224 -4.08549,0.71345 -4.14164,0.7138 -0.0562,3.6e-4 -0.30374,-0.37613 -0.5502,-0.83664 z"
       id="path134"
       transform="scale(0.26458333)" /><path
       style="fill:#ff9307;fill-opacity:0.826087;stroke-width:0.450843"
       d="m 525.37913,548.7328 c -7.15266,-1.89156 -7.92149,-8.97116 -1.65479,-15.23786 6.01614,-6.01614 18.03561,-11.82104 30.00553,-14.49141 11.89775,-2.65427 17.48272,-3.29815 28.91583,-3.33364 9.35169,-0.029 10.88489,0.0717 12.22337,0.80339 1.86689,1.0205 2.52161,2.15991 2.01347,3.50409 -1.55239,4.10661 -29.41117,19.13463 -46.49533,25.08123 -8.77505,3.0544 -20.71721,4.80895 -25.00808,3.6742 z"
       id="path135"
       transform="scale(0.26458333)" /><path
       style="fill:#ff9307;fill-opacity:0.826087;stroke-width:0.450843"
       d="m 523.8216,547.91165 c -2.59434,-1.33708 -3.90774,-3.2816 -3.90774,-5.78549 0,-5.86744 5.69329,-11.4708 17.2799,-17.00695 7.81685,-3.73493 14.55145,-5.71615 26.67991,-7.84884 7.01128,-1.23288 26.29328,-1.85853 29.58503,-0.95996 2.46601,0.67317 3.77356,2.33773 2.98853,3.80455 -2.16706,4.04921 -28.18307,18.09885 -44.69221,24.13552 -7.10421,2.5977 -13.69526,3.96154 -20.43537,4.22855 -4.96458,0.19668 -6.1964,0.10347 -7.49805,-0.56738 z"
       id="path136"
       transform="scale(0.26458333)" /><path
       style="fill:#ff9307;fill-opacity:0.826087;stroke-width:0.450843"
       d="m 523.38518,547.26114 c -5.42085,-3.3053 -3.77282,-10.28049 3.76835,-15.94929 8.39154,-6.30803 20.77972,-11.06736 35.20287,-13.52434 7.0345,-1.19833 23.47591,-2.05285 28.51396,-1.48197 5.76071,0.65275 7.00322,2.42906 3.75306,5.36539 -6.14046,5.54754 -32.93141,19.14412 -45.95747,23.32373 -9.92419,3.18432 -21.99992,4.26694 -25.28077,2.26648 z"
       id="path137"
       transform="scale(0.26458333)" /><path
       style="fill:#ff9307;fill-opacity:0.826087;stroke-width:0.450843"
       d="m 523.9131,547.5152 c -2.3888,-1.04009 -3.524,-2.88612 -3.524,-5.73066 0,-10.63169 23.67261,-22.52297 49.6627,-24.94669 2.87521,-0.26813 9.18404,-0.48735 14.01962,-0.48716 7.41934,2.8e-4 9.05143,0.13006 10.45391,0.83127 2.01507,1.00749 2.25571,1.91689 0.94736,3.58018 -3.89839,4.956 -35.17866,20.88086 -48.72696,24.807 -8.50455,2.46452 -19.49117,3.40093 -22.83263,1.94606 z"
       id="path138"
       transform="scale(0.26458333)" /><path
       style="fill:#ff9307;fill-opacity:0.826087;stroke-width:0.450843"
       d="m 523.9131,547.54914 c -4.94498,-2.26755 -4.69687,-8.44022 0.55332,-13.76563 6.25505,-6.34468 19.85867,-12.41113 34.18609,-15.24508 8.43332,-1.66811 14.41162,-2.18901 25.11283,-2.18814 7.71021,6.2e-4 9.35156,0.12749 10.75999,0.83167 0.91407,0.45701 1.73563,1.22547 1.82568,1.70767 0.38936,2.08491 -7.30589,7.31624 -21.46228,14.59035 -13.54063,6.95771 -25.53949,11.78609 -33.58902,13.51634 -5.08465,1.09294 -15.48741,1.42371 -17.38661,0.55282 z"
       id="path139"
       transform="scale(0.26458333)" /><path
       style="fill:#ff9307;fill-opacity:0.826087;stroke-width:0.450843"
       d="m 512.48809,515.65292 c -0.28502,-0.74276 2.08139,-3.08993 9.86367,-9.78349 9.44633,-8.1248 18.85916,-14.63331 24.10167,-16.66511 4.98257,-1.93105 15.83077,-1.14776 40.46944,2.92209 6.14249,1.01462 12.2734,2.08205 13.62424,2.37206 2.49767,0.53621 3.63675,1.67997 2.21604,2.22514 -0.42741,0.16402 -7.53461,0.045 -15.79375,-0.26455 -20.18347,-0.75641 -35.24489,-0.71619 -38.30345,0.10226 -6.3344,1.69507 -15.83476,6.79129 -27.69089,14.85409 -3.99053,2.71378 -7.47244,4.93414 -7.73758,4.93414 -0.26514,0 -0.60236,-0.31348 -0.74939,-0.69663 z"
       id="path140"
       transform="scale(0.26458333)" /><path
       style="fill:#ff9307;fill-opacity:0.826087;stroke-width:0.450843"
       d=""
       id="path141"
       transform="scale(0.26458333)" /><path
       style="fill:#ff9307;fill-opacity:0.826087;stroke-width:0.450843"
       d=""
       id="path142"
       transform="scale(0.26458333)" /></g></svg>
